<?xml version="1.0" encoding="UTF-8"?>
<!DOCTYPE svg PUBLIC "-//W3C//DTD SVG 1.1//EN" "http://www.w3.org/Graphics/SVG/1.1/DTD/svg11.dtd">
<!-- Creator: CorelDRAW -->
<svg xmlns="http://www.w3.org/2000/svg" xml:space="preserve" width="1181px" height="1181px" version="1.1" shape-rendering="geometricPrecision" text-rendering="geometricPrecision" image-rendering="optimizeQuality" fill-rule="evenodd" clip-rule="evenodd"
viewBox="0 0 1181 1180.72"
 xmlns:xlink="http://www.w3.org/1999/xlink"
 xmlns:xodm="http://www.corel.com/coreldraw/odm/2003">
 <g id="Camada_x0020_1">
  <metadata id="CorelCorpID_0Corel-Layer"/>
  <path fill="#111111" fill-rule="nonzero" d="M763.55 590.45l381.52 -381.34c47.9,-47.9 47.9,-125.19 0,-173.09 -47.9,-47.9 -125.19,-47.9 -173.09,0l-381.53 381.34 -381.43 -381.43c-47.9,-47.9 -125.19,-47.9 -173.09,0 -47.9,47.9 -47.9,125.19 0,173.09l381.52 381.34 -381.52 381.34c-47.9,47.9 -47.9,125.19 0,173.1 47.99,47.9 125.56,47.9 173.09,0l381.53 -381.35 381.52 381.35c47.91,47.9 125.2,47.9 173.1,0 47.53,-47.91 47.53,-125.2 -0.47,-173.19l-381.15 -381.16z"/>
 </g>
</svg>
