<?xml version="1.0" encoding="UTF-8"?>
<!DOCTYPE svg PUBLIC "-//W3C//DTD SVG 1.1//EN" "http://www.w3.org/Graphics/SVG/1.1/DTD/svg11.dtd">
<!-- Creator: CorelDRAW -->
<svg xmlns="http://www.w3.org/2000/svg" xml:space="preserve" width="609px" height="609px" version="1.1" shape-rendering="geometricPrecision" text-rendering="geometricPrecision" image-rendering="optimizeQuality" fill-rule="evenodd" clip-rule="evenodd"
viewBox="0 0 607.32 607.32"
 xmlns:xlink="http://www.w3.org/1999/xlink"
 xmlns:xodm="http://www.corel.com/coreldraw/odm/2003">
 <g id="Camada_x0020_1">
  <metadata id="CorelCorpID_0Corel-Layer"/>
  <g id="_1500346365152">
   <circle fill="black" cx="303.66" cy="303.66" r="303.66"/>
   <path fill="white" d="M260.29 480.56c2.39,2.38 1.41,1.55 10.03,1.79l55.19 0.11c4.27,0 17.23,1.15 19.86,-1.52 8.21,0.23 15.77,-7.19 19.1,-13.07 3.84,-6.75 4.12,-17.14 6.34,-25.76 12,-46.77 31.64,-52.29 46.37,-82.39 7.33,-14.99 12.39,-31.48 13.3,-51.12 3.4,-73.53 -55.52,-132.51 -126.12,-132.73 -94.95,-0.3 -155.06,98.49 -114.96,182.28 14.71,30.72 35.02,37.37 46.73,82.1 2.27,8.69 2.3,18.18 6.17,26.06 2.7,5.51 11,15.34 17.99,14.25zm37.88 -73.84l-6.69 -0.66c-90.01,-10.6 -122.99,-124.17 -56.76,-180.92 70.68,-60.57 177.25,-9.91 172.67,84.38 -1.41,28.97 -17.45,55.93 -33.16,69.85 -19.16,16.98 -41.81,27.44 -76.06,27.35zm-4.37 -181.56c-8.29,2.66 -14.54,11.69 -11.64,21.91 2.36,8.32 12.47,15.01 22.73,11.61 21.46,-7.1 11.33,-40.71 -11.09,-33.52zm-28.07 316.15c23.54,12.45 84.06,6.49 82.16,-7.84 -5.42,-1.63 -63.5,-0.63 -77.57,-0.67 -4.16,-0.01 -10.22,-1.08 -10.87,2.08 -0.56,2.78 4.63,5.55 6.28,6.43zm-12.35 -22.12c1.79,7.65 15.63,5.09 23.38,5.09l57.03 0c7.76,0.01 21.55,2.36 20.18,-7.69 -1.19,-8.71 -16.44,-5.51 -23.86,-5.58l-57.03 -0.03c-6.79,0 -22.18,-2.39 -19.7,8.21zm24.3 -29.77c-5.33,0 -17.74,-0.88 -22.1,-0.13 -7.43,1.27 -7.84,10.49 -2.19,12.71 3.53,1.38 74.26,0.71 84.08,0.71 5.26,0 15.73,1.4 18.92,-2.38 1.72,-2.04 1.74,-6.04 0.1,-8.41 -1.85,-2.67 -4.11,-2.51 -7.99,-2.5l-70.82 0zm134.44 -77.84c0.71,4.96 10.28,13.39 14.62,17.42 2.54,2.36 4.92,4.88 8.31,8.25l23.85 23.92c7.91,6.24 18.74,-0.16 17.19,-9.82 -0.84,-5.17 -11.42,-13.57 -14.89,-17.25l-32.19 -32.31c-7.42,-5.86 -18.25,0.24 -16.89,9.79zm-112.23 -351.35c-8.62,4.7 -6.16,8.93 -6.57,19.32 -0.34,8.42 -0.1,17.25 -0.1,25.75 0,7.92 -0.57,18.17 0,25.8 0.56,7.46 7.02,13.12 15.07,9.49 7.23,-3.25 5.82,-11.21 5.82,-19.66 0,-8.58 0,-17.16 0,-25.75 0,-7.65 0.65,-18.39 0.04,-25.64 -0.54,-6.53 -7.93,-12.76 -14.26,-9.31zm-105.32 353.19c3.75,-9.44 -6.96,-17.55 -15.58,-12.29 -2.82,1.72 -45.91,45.2 -46.9,47.82 -3.9,10.25 6.8,18.61 15.56,12.88 2.28,-1.49 45.15,-43.96 46.92,-48.41zm267.6 -293.92c-2.96,1.47 -1.74,-0.49 -4.84,2.71 -1.54,1.58 -2.36,2.77 -3.94,4.28 -5.67,5.4 -38.81,38.05 -40.23,40.79 -4.67,8.97 4.57,18.49 13.61,14.5 3.78,-1.67 27.95,-26.76 32.77,-31.64 3.32,-3.36 13.85,-13 15.62,-16.62 4.08,-8.39 -4.5,-18.23 -12.99,-14.02zm-323.78 -0.08c-0.51,0.22 -6.53,0.42 -7.19,8.91 -0.61,7.95 13.74,18.95 21.27,26.76l23.97 23.86c2.56,2.43 6.77,4.97 12.34,3.09 5.7,-1.92 10.9,-10.07 0.87,-20 -6.14,-6.08 -10.41,-10.57 -16.01,-16.13 -5.62,-5.56 -10.41,-10.42 -16.11,-16.11 -3.84,-3.83 -10.83,-13.97 -19.14,-10.38zm-69.51 162.47c-5.43,3.2 -7.37,12.76 -0.93,17.55 4.81,3.57 15.68,2.22 23.02,2.22 8.89,0 44.84,1.32 49.78,-1.28 5.16,-2.71 8.22,-12.14 2.37,-17.27 -4.79,-4.21 -16.79,-2.56 -23.64,-2.56 -7.98,0 -46.25,-1.22 -50.6,1.34zm397.29 0c-6.94,4.23 -5.87,13.26 -2,16.74 4.75,4.27 15.5,3.06 23.22,3.05 8.95,0 45.41,1.43 50.68,-1.28 5.33,-2.74 7.65,-12.56 2.38,-17.28 -4.72,-4.23 -16.85,-2.57 -23.63,-2.57 -7.94,0 -46.49,-1.19 -50.65,1.34zm-193.9 -8.28l-0.27 7.36c4.71,2.41 11.22,1.08 15.35,4.09 4.32,3.15 3.35,11.72 3.35,17.07 -0.01,78.29 2.76,58.64 -20.79,65.83l-0.5 8.83 67.62 0.44 0.42 -9.85c-25.24,0.32 -20.65,-6.78 -20.65,-42.26l-0.23 -61.88c-2.64,-0.02 -15.88,4.54 -20.66,5.54 -3.49,0.73 -21.91,3.95 -23.64,4.83z"/>
  </g>
 </g>
</svg>
