<?xml version="1.0" encoding="UTF-8"?>
<!DOCTYPE svg PUBLIC "-//W3C//DTD SVG 1.1//EN" "http://www.w3.org/Graphics/SVG/1.1/DTD/svg11.dtd">
<!-- Creator: CorelDRAW -->
<svg xmlns="http://www.w3.org/2000/svg" xml:space="preserve" width="1181px" height="1181px" version="1.1" shape-rendering="geometricPrecision" text-rendering="geometricPrecision" image-rendering="optimizeQuality" fill-rule="evenodd" clip-rule="evenodd"
viewBox="0 0 858.95 858.95"
 xmlns:xlink="http://www.w3.org/1999/xlink"
 xmlns:xodm="http://www.corel.com/coreldraw/odm/2003">
 <g id="Camada_x0020_1">
  <metadata id="CorelCorpID_0Corel-Layer"/>
  <path fill="white" fill-rule="nonzero" d="M286.31 429.74c-0.14,-79.05 63.84,-143.27 142.88,-143.41 79.05,-0.15 143.28,63.8 143.44,142.87 0.15,79.06 -63.83,143.27 -142.9,143.42 -79.04,0.15 -143.27,-63.81 -143.42,-142.88l0 0zm-77.35 0.15c0.23,121.8 99.16,220.32 220.93,220.08 121.78,-0.23 220.35,-99.13 220.12,-220.93 -0.24,-121.75 -99.18,-220.33 -220.97,-220.09 -121.78,0.24 -220.32,99.17 -220.08,220.94l0 0zm397.77 -229.99c0.06,28.44 23.18,51.47 51.63,51.42 28.45,-0.06 51.48,-23.17 51.44,-51.61 -0.06,-28.45 -23.18,-51.49 -51.64,-51.43 -28.45,0.05 -51.48,23.18 -51.43,51.62zm-350.11 579.46c-41.88,-1.82 -64.61,-8.78 -79.76,-14.61 -20.07,-7.77 -34.39,-17.08 -49.46,-32.03 -15.04,-15.02 -24.38,-29.3 -32.21,-49.32 -5.89,-15.16 -12.97,-37.87 -14.93,-79.74 -2.13,-45.26 -2.62,-58.84 -2.83,-173.52 -0.22,-114.64 0.2,-128.23 2.17,-173.53 1.8,-41.85 8.8,-64.61 14.61,-79.75 7.77,-20.1 17.05,-34.39 32.04,-49.46 15.01,-15.07 29.29,-24.38 49.32,-32.21 15.15,-5.92 37.85,-12.94 79.71,-14.93 45.29,-2.14 58.86,-2.6 173.51,-2.83 114.67,-0.22 128.25,0.18 173.56,2.17 41.84,1.83 64.6,8.76 79.73,14.62 20.08,7.76 34.4,17.01 49.45,32.03 15.06,15.01 24.4,29.26 32.23,49.34 5.91,15.1 12.94,37.84 14.92,79.68 2.16,45.29 2.64,58.88 2.85,173.52 0.22,114.68 -0.2,128.26 -2.18,173.54 -1.83,41.87 -8.77,64.62 -14.61,79.79 -7.77,20.05 -17.05,34.37 -32.05,49.44 -15,15.01 -29.28,24.38 -49.33,32.21 -15.11,5.9 -37.85,12.94 -79.68,14.93 -45.29,2.13 -58.86,2.62 -173.54,2.83 -114.65,0.22 -128.22,-0.21 -173.52,-2.17l0 0zm-5.01 -776.39c-45.7,2.16 -76.91,9.48 -104.19,20.17 -28.23,11 -52.16,25.75 -75.97,49.66 -23.84,23.92 -38.48,47.9 -49.4,76.16 -10.57,27.34 -17.74,58.57 -19.76,104.29 -2,45.81 -2.46,60.42 -2.24,177.04 0.22,116.61 0.74,131.25 2.92,177.08 2.19,45.68 9.48,76.88 20.17,104.16 11.02,28.24 25.75,52.16 49.67,75.98 23.91,23.82 47.9,38.45 76.17,49.39 27.32,10.56 58.56,17.75 104.27,19.76 45.81,2.01 60.43,2.46 177.03,2.24 116.64,-0.23 131.27,-0.74 177.08,-2.91 45.69,-2.19 76.88,-9.5 104.18,-20.17 28.23,-11.04 52.16,-25.75 75.98,-49.67 23.8,-23.91 38.44,-47.9 49.37,-76.17 10.57,-27.32 17.77,-58.56 19.75,-104.24 2.01,-45.84 2.48,-60.48 2.26,-177.09 -0.23,-116.62 -0.75,-131.23 -2.92,-177.03 -2.17,-45.72 -9.49,-76.9 -20.17,-104.21 -11.03,-28.23 -25.75,-52.14 -49.66,-75.97 -23.9,-23.81 -47.89,-38.48 -76.17,-49.37 -27.33,-10.58 -58.55,-17.79 -104.26,-19.76 -45.81,-2.04 -60.44,-2.48 -177.07,-2.26 -116.61,0.22 -131.24,0.72 -177.04,2.92z"/>
 </g>
</svg>
