<?xml version="1.0" encoding="UTF-8"?>
<!DOCTYPE svg PUBLIC "-//W3C//DTD SVG 1.1//EN" "http://www.w3.org/Graphics/SVG/1.1/DTD/svg11.dtd">
<!-- Creator: CorelDRAW -->
<svg xmlns="http://www.w3.org/2000/svg" xml:space="preserve" width="996px" height="301px" version="1.1" shape-rendering="geometricPrecision" text-rendering="geometricPrecision" image-rendering="optimizeQuality" fill-rule="evenodd" clip-rule="evenodd"
viewBox="0 0 994.32 300.69"
 xmlns:xlink="http://www.w3.org/1999/xlink"
 xmlns:xodm="http://www.corel.com/coreldraw/odm/2003">
 <g id="Camada_x0020_1">
  <metadata id="CorelCorpID_0Corel-Layer"/>
  <path fill="white" d="M811.26 112.33c0,-78.53 9.4,-54.5 12.48,-91.53 14.6,10.7 32.52,82.95 39.02,102.44 11.77,35.32 27.89,75.49 35.87,109.74l-79.04 0c0,-60.58 -8.33,-93.34 -8.33,-120.65zm-178.89 187.21l70.73 0 0 -299.54 -70.73 0 0 299.54zm-632.37 0l70.73 0 0 -299.54 -70.73 0 0 299.54zm357.79 -162.25c0,180.08 171.12,210.97 235.86,94.38 4.46,-8.02 12.41,-22.12 11.81,-28.38 -2.61,-27.13 -16.09,29.69 -85.42,29.69 -56.44,0 -118.2,-36.98 -128.97,-83.21 28.91,-2.41 6.27,-14.68 74.9,16.63 40.37,18.41 37.08,8.9 62.39,8.33 0.37,-16.66 8.75,-54.69 12.48,-70.72 -11.42,2.66 -16.91,8.32 -24.96,8.32 -39.84,0 -82.05,-23.54 -113.55,7.39 -19.77,19.41 -19.58,35.55 -19.58,-32.35 0,-29.35 18.89,-66.57 54.08,-66.57 51.64,0 61.12,45.76 95.69,45.76l58.25 0 0 -66.56 -137.29 0c-64.64,0 -95.69,70.32 -95.69,137.29zm-245.46 -83.21l0 -41.6c65.62,0 103.41,-10.29 134.13,40.6 24.01,39.78 51.27,233.98 -75.89,233.98 0,-73.58 2.93,-73.78 -29.14,-137.27 -11.59,-22.97 -29.1,-61.8 -29.1,-95.71zm-12.48 245.46l116.49 0c87.21,0 120.65,-63.42 120.65,-149.77 0,-83.2 -33.38,-149.77 -116.49,-149.77l-120.65 0 0 299.54zm624.05 0l70.72 0c8.38,-17.45 12.43,-40.79 20.8,-58.24l87.37 0c1.66,19.98 12.08,38.64 16.64,58.24l74.89 0 -99.85 -299.54 -74.88 0c-1.57,18.79 -15.8,53.6 -22.38,73.32l-49.85 149.84c-8.01,27.22 -17.7,51.66 -23.46,76.38z"/>
 </g>
</svg>
