<?xml version="1.0" encoding="UTF-8"?>
<!DOCTYPE svg PUBLIC "-//W3C//DTD SVG 1.1//EN" "http://www.w3.org/Graphics/SVG/1.1/DTD/svg11.dtd">
<!-- Creator: CorelDRAW -->
<svg xmlns="http://www.w3.org/2000/svg" xml:space="preserve" width="1000px" height="504px" version="1.1" shape-rendering="geometricPrecision" text-rendering="geometricPrecision" image-rendering="optimizeQuality" fill-rule="evenodd" clip-rule="evenodd"
viewBox="0 0 71.52 36.02"
 xmlns:xlink="http://www.w3.org/1999/xlink"
 xmlns:xodm="http://www.corel.com/coreldraw/odm/2003">
 <g id="Camada_x0020_1">
  <metadata id="CorelCorpID_0Corel-Layer"/>
  <g id="_1514257890512">
   <path fill="white" d="M8.1 26.49l-3.71 0c-0.83,0 -1.51,-0.68 -1.51,-1.51l0 -14.61c0,-0.27 0.22,-0.49 0.49,-0.49l1.91 0c1.55,0 2.82,1.26 2.82,2.81l0 13.8zm-3.93 -19.05c0.18,0.11 0.25,0.35 0.14,0.53 -0.1,0.19 -0.34,0.26 -0.53,0.15 -0.46,-0.26 -0.82,-0.63 -1.08,-1.07 -0.25,-0.44 -0.39,-0.95 -0.39,-1.47 0,-0.81 0.33,-1.54 0.85,-2.07 0.53,-0.53 1.27,-0.85 2.07,-0.85 0.81,0 1.54,0.32 2.07,0.85 0.53,0.53 0.86,1.26 0.86,2.07 0,0.55 -0.16,1.08 -0.43,1.53 -0.28,0.46 -0.68,0.83 -1.18,1.08 -0.19,0.1 -0.43,0.02 -0.52,-0.17 -0.1,-0.19 -0.02,-0.43 0.17,-0.53 0.36,-0.18 0.65,-0.45 0.86,-0.79 0.2,-0.33 0.31,-0.71 0.31,-1.12 0,-0.59 -0.24,-1.12 -0.62,-1.51 -0.39,-0.39 -0.93,-0.63 -1.52,-0.63 -0.59,0 -1.12,0.24 -1.51,0.63 -0.39,0.39 -0.63,0.92 -0.63,1.51 0,0.39 0.11,0.76 0.29,1.08 0.19,0.32 0.45,0.59 0.79,0.78z"/>
   <path fill="white" fill-rule="nonzero" d="M22.77 11.45c-0.98,-0.86 -2.33,-1.32 -4.11,-1.32 -5.27,0 -8.07,3.49 -8.07,8.69 0,5.46 2.87,8.72 9.12,8.72 5.07,0 8.33,-3.39 8.33,-7.04l0 -15.51c0,-1.58 -1.02,-2.6 -2.6,-2.6 -1.61,0 -2.67,1.02 -2.67,2.6l0 6.46zm-6.74 7.4c0,-2.6 1.31,-4.28 3.39,-4.28 2.04,0 3.35,1.68 3.35,4.28 0,2.31 -1.31,4.28 -3.35,4.28 -2.08,0 -3.39,-1.74 -3.39,-4.28z"/>
   <path fill="white" fill-rule="nonzero" d="M42.3 20.47c2.2,0 3.75,-1.12 3.75,-3.1 0,-4.05 -2.77,-7.24 -7.93,-7.24 -5.2,0 -8.69,3.49 -8.69,8.69 0,5.27 3.49,8.26 8.69,8.26l5.36 0c1.29,0 2.11,-0.82 2.11,-2.11 0,-1.31 -0.82,-2.17 -2.11,-2.17l-5.36 0c-1.48,0 -2.64,-0.82 -3.06,-2.33l7.24 0zm-7.38 -3.3c0.27,-1.64 1.25,-2.6 2.87,-2.6 1.68,0 2.66,0.99 2.96,2.6l-5.83 0z"/>
   <path fill="white" fill-rule="nonzero" d="M68.85 27.08c1.61,0 2.67,-0.92 2.67,-2.5l0 -8.13c0,-3.88 -2.67,-6.29 -8.43,-6.29 -4.91,0 -8.69,3.26 -8.69,8.66 0,5.27 3.49,8.26 7.01,8.26l7.44 0zm-9.02 -8.23c0,-2.6 1.25,-4.28 3.23,-4.28 1.94,0 3.19,1.68 3.19,4.28l0 3.79 -3.19 0c-1.98,0 -3.23,-1.25 -3.23,-3.79z"/>
   <path fill="white" d="M53.09 26.49l-3.71 0c-0.83,0 -1.51,-0.68 -1.51,-1.51l0 -14.61c0,-0.27 0.22,-0.49 0.49,-0.49l1.92 0c1.54,0 2.81,1.26 2.81,2.81l0 13.8z"/>
   <path fill="white" fill-rule="nonzero" d="M8.25 34.38c-0.51,-0.22 -0.52,-0.26 -1.06,-0.53 -0.28,0.53 -0.83,0.87 -1.46,0.87 -0.92,0 -1.67,-0.75 -1.67,-1.67 0,-0.91 0.75,-1.67 1.67,-1.67 0.6,0 1.14,0.33 1.41,0.81 0.54,-0.26 0.58,-0.28 1.06,-0.53 -0.48,-0.86 -1.39,-1.46 -2.47,-1.46 -1.58,0 -2.85,1.29 -2.85,2.85 0,1.58 1.27,2.85 2.85,2.85 1.11,0 2.04,-0.61 2.52,-1.52z"/>
   <path fill="white" fill-rule="nonzero" d="M12.49 35.89l0.6 -1.25 2.84 0 0.55 1.25 1.2 0 -2.52 -5.63 -1.24 0 -2.55 5.63 1.12 0zm2.08 -4.57l0.91 2.18 -1.87 0 0.95 -2.18 0.01 0z"/>
   <polygon fill="white" fill-rule="nonzero" points="20.8,35.88 21.97,35.88 21.97,31.95 21.99,31.95 23.23,34.46 24.18,34.46 25.44,31.91 25.45,31.91 25.45,35.88 26.61,35.88 26.61,30.26 24.98,30.26 23.7,32.74 22.4,30.26 20.8,30.26 "/>
   <polygon fill="white" fill-rule="nonzero" points="29.73,35.89 30.97,35.89 30.97,30.26 29.73,30.26 "/>
   <path fill="white" fill-rule="nonzero" d="M34.09 34.02c0,1.39 1.13,2 2.39,2 1.54,0 2.34,-0.77 2.34,-1.8 0,-1.27 -1.25,-1.53 -1.67,-1.63 -1.41,-0.34 -1.68,-0.44 -1.68,-0.85 0,-0.48 0.46,-0.64 0.86,-0.64 0.38,0 0.96,0.02 1.11,0.68l1.19 0.17c0,-1.3 -1.08,-1.81 -2.25,-1.81 -1.02,0 -2.1,0.54 -2.1,1.7 0,2.1 3.34,1.33 3.34,2.52 0,0.58 -0.66,0.7 -1.09,0.7 -0.46,0 -1.12,-0.1 -1.24,-0.84l-1.2 -0.2z"/>
   <polygon fill="white" fill-rule="nonzero" points="45.71,33.64 45.71,32.55 43.14,32.55 43.14,31.28 46.05,31.28 46.05,30.24 41.94,30.24 41.94,35.89 46.31,35.89 46.31,34.85 43.14,34.85 43.14,33.64 "/>
   <polygon fill="white" fill-rule="nonzero" points="51.22,35.89 52.46,35.89 52.46,31.3 54.23,31.3 54.23,30.26 49.43,30.26 49.43,31.3 51.22,31.3 "/>
   <path fill="white" fill-rule="nonzero" d="M58.48 35.89l0.59 -1.25 2.84 0 0.55 1.25 1.2 0 -2.51 -5.63 -1.25 0 -2.55 5.63 1.13 0zm2.07 -4.57l0.91 2.18 -1.86 0 0.94 -2.18 0.01 0z"/>
   <path fill="white" fill-rule="nonzero" d="M66.78 34.02c0,1.39 1.14,2 2.4,2 1.53,0 2.34,-0.77 2.34,-1.8 0,-1.27 -1.26,-1.53 -1.67,-1.63 -1.41,-0.34 -1.68,-0.44 -1.68,-0.85 0,-0.48 0.45,-0.64 0.85,-0.64 0.38,0 0.96,0.02 1.11,0.68l1.2 0.17c0,-1.3 -1.08,-1.81 -2.26,-1.81 -1.01,0 -2.1,0.54 -2.1,1.7 0,2.1 3.35,1.33 3.35,2.52 0,0.58 -0.66,0.7 -1.1,0.7 -0.45,0 -1.12,-0.1 -1.24,-0.84l-1.2 -0.2z"/>
   <path fill="red" d="M5.07 0l0 0c0.21,0 0.38,0.17 0.38,0.38l0 1.18c0,0.21 -0.17,0.38 -0.38,0.38l0 0c-0.21,0 -0.39,-0.17 -0.39,-0.38l0 -1.18c0,-0.21 0.18,-0.38 0.39,-0.38zm3.48 4.97l0 0c0,-0.21 0.17,-0.38 0.39,-0.38l1.17 0c0.21,0 0.38,0.17 0.38,0.38l0 0c0,0.21 -0.17,0.39 -0.38,0.39l-1.17 0c-0.22,0 -0.39,-0.18 -0.39,-0.39zm0.03 -3.49l0 0c-0.15,-0.15 -0.39,-0.15 -0.54,0l-0.83 0.83c-0.15,0.15 -0.15,0.39 0,0.54l0 0c0.15,0.15 0.39,0.15 0.54,0l0.83 -0.83c0.15,-0.15 0.15,-0.39 0,-0.54zm-7 0l0 0c0.15,-0.15 0.39,-0.15 0.54,0l0.83 0.83c0.15,0.15 0.15,0.39 0,0.54l0 0c-0.15,0.15 -0.39,0.15 -0.54,0l-0.83 -0.83c-0.15,-0.15 -0.15,-0.39 0,-0.54zm-1.58 3.49l0 0c0,-0.21 0.17,-0.38 0.38,-0.38l1.18 0c0.21,0 0.38,0.17 0.38,0.38l0 0c0,0.21 -0.17,0.39 -0.38,0.39l-1.18 0c-0.21,0 -0.38,-0.18 -0.38,-0.39z"/>
  </g>
 </g>
</svg>
