<?xml version="1.0" encoding="UTF-8"?>
<!DOCTYPE svg PUBLIC "-//W3C//DTD SVG 1.1//EN" "http://www.w3.org/Graphics/SVG/1.1/DTD/svg11.dtd">
<!-- Creator: CorelDRAW -->
<svg xmlns="http://www.w3.org/2000/svg" xml:space="preserve" width="1037px" height="1181px" version="1.1" shape-rendering="geometricPrecision" text-rendering="geometricPrecision" image-rendering="optimizeQuality" fill-rule="evenodd" clip-rule="evenodd"
viewBox="0 0 1330.07 1515.3"
 xmlns:xlink="http://www.w3.org/1999/xlink"
 xmlns:xodm="http://www.corel.com/coreldraw/odm/2003">
 <g id="Camada_x0020_1">
  <metadata id="CorelCorpID_0Corel-Layer"/>
  <path fill="white" d="M1061.37 1008.48c163.02,51.3 268.7,133.3 268.7,225.78 0,155.26 -297.68,281.04 -665.03,281.04 -367.36,0 -665.04,-125.78 -665.04,-281.04 0,-94.7 110.99,-178.43 280.29,-229.36 6.17,9.37 12.34,18.74 18.62,27.87 13.24,19.24 26.93,38.15 41.07,56.72 -118.63,31.82 -194.72,80.9 -194.72,135.65 0,95.94 230.23,173.75 514.35,173.75 284.12,0 514.22,-77.81 514.22,-173.75 0,-51.3 -65.85,-97.42 -170.67,-129.23 20.6,-28.24 39.96,-57.59 58.21,-87.8l0 0.37zm-177.82 33.41c-55.51,61.1 -119.8,114.36 -190.24,157.44 -4.66,3.47 -10.28,5.34 -16.04,5.34 -5.17,0 -10.24,-1.5 -14.57,-4.32 -100.67,-63.41 -190.38,-143.44 -264.78,-236.16 -96.41,-120.95 -157.09,-255.12 -177.93,-384.6 -21.09,-130.72 -1.35,-256.74 63.63,-359.22 26.53,-41.71 59.95,-78.75 98.67,-109.37 92.1,-73.01 197.29,-111.73 301.74,-110.99 106.65,1.56 208.94,43.37 286.2,116.9 29.71,27.08 55.55,58.35 76.48,92.72 70.04,115.54 85.22,262.79 54.39,411.99 -34.14,156.5 -109.43,301.32 -217.6,419.34l0 0 0.05 0.93zm-219.5 -808.94c124.27,0 225.04,100.78 225.04,225.05 0,124.27 -100.77,225.05 -225.04,225.05 -124.27,0 -225.04,-100.78 -225.04,-225.05 0,-0.04 0,-0.09 0,-0.12 0,-124.2 100.72,-224.93 224.92,-224.93 0.03,0 0.08,0 0.11,0l0.01 0z"/>
 </g>
</svg>
