<?xml version="1.0" encoding="UTF-8"?>
<!DOCTYPE svg PUBLIC "-//W3C//DTD SVG 1.1//EN" "http://www.w3.org/Graphics/SVG/1.1/DTD/svg11.dtd">
<!-- Creator: CorelDRAW -->
<svg xmlns="http://www.w3.org/2000/svg" xml:space="preserve" width="1175px" height="1181px" version="1.1" shape-rendering="geometricPrecision" text-rendering="geometricPrecision" image-rendering="optimizeQuality" fill-rule="evenodd" clip-rule="evenodd"
viewBox="0 0 895.8 900.13"
 xmlns:xlink="http://www.w3.org/1999/xlink"
 xmlns:xodm="http://www.corel.com/coreldraw/odm/2003">
 <g id="Camada_x0020_1">
  <metadata id="CorelCorpID_0Corel-Layer"/>
  <path fill="white" d="M765.28 130.8c-84.2,-84.3 -196.18,-130.76 -315.5,-130.8 -245.86,0 -445.95,200.07 -446.04,446 -0.04,78.62 20.51,155.35 59.54,222.98l-63.28 231.15 236.45 -62.03c65.15,35.55 138.5,54.26 213.14,54.28l0.19 0c245.82,0 445.94,-200.09 446.02,-446.02 0.05,-119.18 -46.3,-231.23 -130.52,-315.54l0 -0.02 0 0zm-315.5 686.26l-0.14 0c-66.52,-0.02 -131.77,-17.9 -188.7,-51.67l-13.54 -8.04 -140.32 36.8 37.45 -136.81 -8.81 -14.03c-37.1,-59.02 -56.72,-127.25 -56.67,-197.29 0.08,-204.39 166.39,-370.7 370.89,-370.7 99.01,0.05 192.09,38.65 262.09,108.73 70,70.07 108.51,163.23 108.47,262.27 -0.09,204.41 -166.39,370.72 -370.72,370.72l0 0.02zm203.35 -277.64c-11.14,-5.58 -65.93,-32.53 -76.16,-36.25 -10.22,-3.73 -17.64,-5.58 -25.06,5.58 -7.43,11.16 -28.79,36.27 -35.29,43.69 -6.5,7.44 -13,8.36 -24.15,2.78 -11.14,-5.58 -47.05,-17.34 -89.63,-55.31 -33.13,-29.55 -55.5,-66.04 -62,-77.2 -6.5,-11.16 -0.68,-17.2 4.88,-22.74 5,-5 11.14,-13.02 16.72,-19.52 5.58,-6.5 7.42,-11.16 11.14,-18.59 3.73,-7.44 1.87,-13.94 -0.91,-19.52 -2.79,-5.58 -25.07,-60.44 -34.37,-82.75 -9.05,-21.73 -18.25,-18.78 -25.07,-19.14 -6.5,-0.32 -13.92,-0.38 -21.36,-0.38 -7.44,0 -19.51,2.78 -29.73,13.94 -10.22,11.16 -39.01,38.13 -39.01,92.97 0,54.83 39.93,107.85 45.51,115.3 5.58,7.44 78.59,119.99 190.38,168.29 26.59,11.48 47.35,18.35 63.54,23.48 26.7,8.49 50.99,7.29 70.19,4.43 21.42,-3.21 65.94,-26.97 75.22,-53 9.28,-26.03 9.28,-48.35 6.5,-53 -2.77,-4.64 -10.22,-7.44 -21.36,-13.02l0.02 -0.04 0 0z"/>
 </g>
</svg>
